<svg xmlns="http://www.w3.org/2000/svg" viewBox="0 0 742.6 482.91"><path d="M166.3,307v-59.2h-33V307H101.5V165.39h31.8V219h33v-53.6h31.8V307Z" fill="#f4f2f2"/><path d="M286.1,307l-5.8-25.8H248.5L242.7,307h-32l34.4-141.6h40.2L319.5,307Zm-21.2-110.8h-.8l-12,60.2h24.2Z" fill="#f4f2f2"/><path d="M393.1,307l-32.8-86.2h-.6l.8,86.2H331.9V165.39h35.2l32.6,87.4h.6l-.6-87.4h27.6V307Z" fill="#f4f2f2"/><path d="M551.1,236.59a111.68,111.68,0,0,1-3.5,29,61.54,61.54,0,0,1-10.7,22.2A47.7,47.7,0,0,1,518.6,302q-11.1,5-26.3,5H452.5V165.39h39.8q15.19,0,26.3,5a47.27,47.27,0,0,1,18.3,14.3,62.59,62.59,0,0,1,10.7,22.4A114.55,114.55,0,0,1,551.1,236.59Zm-32.2,0q0-21.4-7.3-32.3t-18.9-10.9h-7.8V279h7.8q11.6,0,18.9-10.9T518.9,236.59Z" fill="#f4f2f2"/><path d="M629.1,199.19a25.45,25.45,0,0,0-8.4-6.5,22.94,22.94,0,0,0-10-2.3,15.26,15.26,0,0,0-9.7,3.4q-4.31,3.42-4.3,11.22,0,6.62,4.4,10.32a70.86,70.86,0,0,0,13,8.12q4.83,2.4,10.16,5.7a46.89,46.89,0,0,1,9.77,8.12,40.89,40.89,0,0,1,7.35,11.52,39.8,39.8,0,0,1,2.92,15.92,52,52,0,0,1-3.63,20.14,40.66,40.66,0,0,1-9.76,14.42,41.08,41.08,0,0,1-14.18,8.62,48.71,48.71,0,0,1-16.63,2.9,55.37,55.37,0,0,1-23.3-4.8,57.19,57.19,0,0,1-16.9-11.2l16.4-24a36.51,36.51,0,0,0,10.6,7.7,27.79,27.79,0,0,0,12.2,2.9,13.72,13.72,0,0,0,9.8-3.8q4-3.79,4-10.6a13.83,13.83,0,0,0-4.8-11.1,71.19,71.19,0,0,0-14-8.7,90.46,90.46,0,0,1-10.9-6.2,40.53,40.53,0,0,1-9-8.2,36.1,36.1,0,0,1-6.1-11.2,46.8,46.8,0,0,1-2.2-15.2q0-11.8,3.9-20.3a39.84,39.84,0,0,1,10.2-13.9,41.86,41.86,0,0,1,14-8,48.25,48.25,0,0,1,15.5-2.6,54.53,54.53,0,0,1,20.8,3.77,43.81,43.81,0,0,1,15.4,10.33Z" fill="#f4f2f2"/><path d="M70,479.91c-32,0-65.87-24.66-65.87-69.74,0-44.71,33.49-69.37,64.4-69.37,14.35,0,26.31,3.31,36.25,9.38v2.58C95.05,346.32,82.9,343,68.55,343c-29.62,0-62,23.55-62,67.16,0,44,32.75,67.53,63.48,67.53,12.88,0,24.66-3.13,34.78-9.75v2.57C94.68,476.78,82.72,479.91,70,479.91Z" fill="#31afb5" stroke="#31afb5" stroke-miterlimit="10" stroke-width="6"/><path d="M228.44,478.62,207.1,426.18H141.59l-21.34,52.44h-2.58l55.57-136.53h2.21L231,478.62ZM142.51,424h63.67L174.35,345.4Z" fill="#31afb5" stroke="#31afb5" stroke-miterlimit="10" stroke-width="6"/><path d="M329.27,478.62H326l-65.32-64.77v64.77h-2.39V342.09H282.9c30,0,42.69,15.82,42.69,36.06,0,21.16-14.16,35.7-42.87,35.7H264Zm-68.63-67h22.08c27.42,0,40.48-13.43,40.48-33.49,0-18.95-11.41-33.85-40.3-33.85H260.64Z" fill="#31afb5" stroke="#31afb5" stroke-miterlimit="10" stroke-width="6"/><path d="M424.45,476.92q-9.4,5.5-24,5.5a46.22,46.22,0,0,1-22.5-5.5,52.14,52.14,0,0,1-17.3-15.4,76,76,0,0,1-11.2-23.6,107,107,0,0,1-4-30.1,108.79,108.79,0,0,1,4-30.4,74.56,74.56,0,0,1,11.2-23.6,51.51,51.51,0,0,1,17.3-15.2,46.94,46.94,0,0,1,22.5-5.4q14.21,0,23.7,5.1a46.63,46.63,0,0,1,15.3,12.7l-17.2,23.2a30,30,0,0,0-8.1-7.6,21,21,0,0,0-11.3-2.8,18.39,18.39,0,0,0-11.1,3.4,28.35,28.35,0,0,0-8,9.3,47.42,47.42,0,0,0-4.9,14,89,89,0,0,0-1.6,17.3,87.42,87.42,0,0,0,1.6,17.2,48.89,48.89,0,0,0,4.9,14,27.51,27.51,0,0,0,8.1,9.4,18.85,18.85,0,0,0,11.2,3.4,19.74,19.74,0,0,0,11.2-3.2,25.83,25.83,0,0,0,7.6-7.6l17.8,22.2A47.94,47.94,0,0,1,424.45,476.92Z" fill="#d35635"/><path d="M516.45,478.62l-5.8-25.8h-31.8l-5.8,25.8h-32L475.45,337h40.2l34.2,141.6Zm-21.2-110.8h-.8l-12,60.2h24.2Z" fill="#d35635"/><path d="M621.35,478.62l-18.93-56.4h-9.37v56.4h-30.8V337h45.3q20.55,0,31.93,10.7t11.37,31.9a50.58,50.58,0,0,1-1.79,14,39,39,0,0,1-4.69,10.6,29.92,29.92,0,0,1-6.48,7.2,25,25,0,0,1-7,4l24.13,63.2Zm-1.9-97.2a22,22,0,0,0-1.5-8.8,14.43,14.43,0,0,0-3.9-5.4,13,13,0,0,0-5.3-2.7,24,24,0,0,0-5.7-.7h-10v35.8h9.4a17.89,17.89,0,0,0,11.9-4.3Q619.45,391,619.45,381.42Z" fill="#d35635"/><path d="M670.45,478.62V337h68.4v28.2h-37.8V393h34.8v26.4h-34.8v30.4h40.2v28.8Z" fill="#d35635"/><path d="M75.4,141.6l-5.8-25.8H37.8L32,141.6H0L34.4,0H74.6l34.2,141.6ZM54.2,30.8h-.8L41.4,91H65.6Z" fill="#f4f2f2"/><path d="M121.2,141.6V0h32.4V112h37.8v29.6Z" fill="#f4f2f2"/><path d="M205.8,141.6V0h32.4V112H276v29.6Z" fill="#f4f2f2"/><path d="M292.37,4.29h65.51V8.71H297.16V70.35h58.33V75H297.16v65.88h-4.79Z" fill="#f4f2f2" stroke="#f4f2f2" stroke-miterlimit="10" stroke-width="3"/><path d="M385.31,73.33c0-40.66,28-69.92,64.77-69.92,36.62,0,64.77,29.26,64.77,69.92s-28.15,69.93-64.77,69.93C413.28,143.26,385.31,114,385.31,73.33Zm124.75,0c0-39.19-27-65.32-60-65.32-33.12,0-60,26.13-60,65.32s26.87,65.33,60,65.33C483,138.66,510.06,112.53,510.06,73.33Z" fill="#f4f2f2" stroke="#f4f2f2" stroke-miterlimit="10" stroke-width="3"/><path d="M542.28,91.92V5.07h4.78V92.29c0,28.7,16.38,46.37,42.32,46.37,26.13,0,42.88-17.67,42.88-46.56v-87H637V91.92c0,31.46-18.58,51.34-47.66,51.34C560.5,143.26,542.28,123.38,542.28,91.92Z" fill="#f4f2f2" stroke="#f4f2f2" stroke-miterlimit="10" stroke-width="3"/><path d="M739,141.6h-6.62L669.81,78.49h-.55V141.6h-4.79V5.07h26.87c30.36,0,43.42,16.19,43.42,36.8,0,22.08-15.09,36.62-43.79,36.62H676.25ZM690.42,74.07C717.65,74.07,730,61,730,41.87c0-18.59-11.59-32.39-39-32.39H669.26V74.07Z" fill="#f4f2f2" stroke="#f4f2f2" stroke-miterlimit="10" stroke-width="3"/></svg>